<svg width="67" height="112" viewBox="0 0 67 112" fill="none" xmlns="http://www.w3.org/2000/svg">
<path d="M19.7969 99.4205C19.7363 98.8826 19.4863 98.4659 19.0469 98.1705C18.6075 97.8712 18.0545 97.7216 17.3878 97.7216C16.9105 97.7216 16.4976 97.7973 16.1491 97.9489C15.8007 98.0966 15.5298 98.3011 15.3366 98.5625C15.1473 98.8201 15.0526 99.1136 15.0526 99.4432C15.0526 99.7197 15.117 99.9583 15.2457 100.159C15.3783 100.36 15.5507 100.528 15.7628 100.665C15.9787 100.797 16.2098 100.909 16.456 101C16.7022 101.087 16.9389 101.159 17.1662 101.216L18.3026 101.511C18.6738 101.602 19.0545 101.725 19.4446 101.881C19.8348 102.036 20.1965 102.241 20.5298 102.494C20.8632 102.748 21.1321 103.062 21.3366 103.438C21.545 103.812 21.6491 104.261 21.6491 104.784C21.6491 105.443 21.4787 106.028 21.1378 106.54C20.8007 107.051 20.3101 107.455 19.6662 107.75C19.026 108.045 18.2514 108.193 17.3423 108.193C16.4711 108.193 15.7173 108.055 15.081 107.778C14.4446 107.502 13.9465 107.11 13.5866 106.602C13.2268 106.091 13.0279 105.485 12.9901 104.784H14.7514C14.7855 105.205 14.9219 105.555 15.1605 105.835C15.4029 106.112 15.7116 106.318 16.0866 106.455C16.4654 106.587 16.8802 106.653 17.331 106.653C17.8272 106.653 18.2685 106.576 18.6548 106.42C19.045 106.261 19.3518 106.042 19.5753 105.761C19.7988 105.477 19.9105 105.146 19.9105 104.767C19.9105 104.422 19.812 104.14 19.6151 103.92C19.4219 103.701 19.1586 103.519 18.8253 103.375C18.4957 103.231 18.1226 103.104 17.706 102.994L16.331 102.619C15.3991 102.366 14.6605 101.992 14.1151 101.5C13.5734 101.008 13.3026 100.356 13.3026 99.5455C13.3026 98.875 13.4844 98.2898 13.848 97.7898C14.2116 97.2898 14.7041 96.9015 15.3253 96.625C15.9465 96.3447 16.6473 96.2045 17.4276 96.2045C18.2154 96.2045 18.9105 96.3428 19.5128 96.6193C20.1188 96.8958 20.5961 97.2765 20.9446 97.7614C21.2931 98.2424 21.4749 98.7955 21.4901 99.4205H19.7969ZM33.4119 100.148H31.6392C31.571 99.7689 31.4441 99.4356 31.2585 99.1477C31.0729 98.8598 30.8456 98.6155 30.5767 98.4148C30.3078 98.214 30.0066 98.0625 29.6733 97.9602C29.3438 97.858 28.9934 97.8068 28.6222 97.8068C27.9517 97.8068 27.3513 97.9754 26.821 98.3125C26.2945 98.6496 25.8778 99.1439 25.571 99.7955C25.268 100.447 25.1165 101.242 25.1165 102.182C25.1165 103.129 25.268 103.928 25.571 104.58C25.8778 105.231 26.2964 105.723 26.8267 106.057C27.357 106.39 27.9536 106.557 28.6165 106.557C28.9839 106.557 29.3324 106.508 29.6619 106.409C29.9953 106.307 30.2964 106.157 30.5653 105.96C30.8343 105.763 31.0616 105.523 31.2472 105.239C31.4366 104.951 31.5672 104.621 31.6392 104.25L33.4119 104.256C33.3172 104.828 33.1335 105.354 32.8608 105.835C32.5919 106.312 32.2453 106.725 31.821 107.074C31.4006 107.419 30.9195 107.686 30.3778 107.875C29.8362 108.064 29.2453 108.159 28.6051 108.159C27.5975 108.159 26.6998 107.92 25.9119 107.443C25.1241 106.962 24.5028 106.275 24.0483 105.381C23.5975 104.487 23.3722 103.42 23.3722 102.182C23.3722 100.939 23.5994 99.8731 24.054 98.983C24.5085 98.089 25.1297 97.4034 25.9176 96.9261C26.7055 96.4451 27.6013 96.2045 28.6051 96.2045C29.2225 96.2045 29.7983 96.2936 30.3324 96.4716C30.8703 96.6458 31.3532 96.9034 31.7812 97.2443C32.2093 97.5814 32.5634 97.9943 32.8438 98.483C33.1241 98.9678 33.3134 99.5227 33.4119 100.148ZM41.8594 99.4205C41.7988 98.8826 41.5488 98.4659 41.1094 98.1705C40.67 97.8712 40.117 97.7216 39.4503 97.7216C38.973 97.7216 38.5601 97.7973 38.2116 97.9489C37.8632 98.0966 37.5923 98.3011 37.3991 98.5625C37.2098 98.8201 37.1151 99.1136 37.1151 99.4432C37.1151 99.7197 37.1795 99.9583 37.3082 100.159C37.4408 100.36 37.6132 100.528 37.8253 100.665C38.0412 100.797 38.2723 100.909 38.5185 101C38.7647 101.087 39.0014 101.159 39.2287 101.216L40.3651 101.511C40.7363 101.602 41.117 101.725 41.5071 101.881C41.8973 102.036 42.259 102.241 42.5923 102.494C42.9257 102.748 43.1946 103.062 43.3991 103.438C43.6075 103.812 43.7116 104.261 43.7116 104.784C43.7116 105.443 43.5412 106.028 43.2003 106.54C42.8632 107.051 42.3726 107.455 41.7287 107.75C41.0885 108.045 40.3139 108.193 39.4048 108.193C38.5336 108.193 37.7798 108.055 37.1435 107.778C36.5071 107.502 36.009 107.11 35.6491 106.602C35.2893 106.091 35.0904 105.485 35.0526 104.784H36.8139C36.848 105.205 36.9844 105.555 37.223 105.835C37.4654 106.112 37.7741 106.318 38.1491 106.455C38.5279 106.587 38.9427 106.653 39.3935 106.653C39.8897 106.653 40.331 106.576 40.7173 106.42C41.1075 106.261 41.4143 106.042 41.6378 105.761C41.8613 105.477 41.973 105.146 41.973 104.767C41.973 104.422 41.8745 104.14 41.6776 103.92C41.4844 103.701 41.2211 103.519 40.8878 103.375C40.5582 103.231 40.1851 103.104 39.7685 102.994L38.3935 102.619C37.4616 102.366 36.723 101.992 36.1776 101.5C35.6359 101.008 35.3651 100.356 35.3651 99.5455C35.3651 98.875 35.5469 98.2898 35.9105 97.7898C36.2741 97.2898 36.7666 96.9015 37.3878 96.625C38.009 96.3447 38.7098 96.2045 39.4901 96.2045C40.2779 96.2045 40.973 96.3428 41.5753 96.6193C42.1813 96.8958 42.6586 97.2765 43.0071 97.7614C43.3556 98.2424 43.5374 98.7955 43.5526 99.4205H41.8594ZM52.1562 99.4205C52.0956 98.8826 51.8456 98.4659 51.4062 98.1705C50.9669 97.8712 50.4138 97.7216 49.7472 97.7216C49.2699 97.7216 48.857 97.7973 48.5085 97.9489C48.16 98.0966 47.8892 98.3011 47.696 98.5625C47.5066 98.8201 47.4119 99.1136 47.4119 99.4432C47.4119 99.7197 47.4763 99.9583 47.6051 100.159C47.7377 100.36 47.91 100.528 48.1222 100.665C48.3381 100.797 48.5691 100.909 48.8153 101C49.0616 101.087 49.2983 101.159 49.5256 101.216L50.6619 101.511C51.0331 101.602 51.4138 101.725 51.804 101.881C52.1941 102.036 52.5559 102.241 52.8892 102.494C53.2225 102.748 53.4915 103.062 53.696 103.438C53.9044 103.812 54.0085 104.261 54.0085 104.784C54.0085 105.443 53.8381 106.028 53.4972 106.54C53.16 107.051 52.6695 107.455 52.0256 107.75C51.3854 108.045 50.6108 108.193 49.7017 108.193C48.8305 108.193 48.0767 108.055 47.4403 107.778C46.804 107.502 46.3059 107.11 45.946 106.602C45.5862 106.091 45.3873 105.485 45.3494 104.784H47.1108C47.1449 105.205 47.2813 105.555 47.5199 105.835C47.7623 106.112 48.071 106.318 48.446 106.455C48.8248 106.587 49.2396 106.653 49.6903 106.653C50.1866 106.653 50.6278 106.576 51.0142 106.42C51.4044 106.261 51.7112 106.042 51.9347 105.761C52.1581 105.477 52.2699 105.146 52.2699 104.767C52.2699 104.422 52.1714 104.14 51.9744 103.92C51.7813 103.701 51.518 103.519 51.1847 103.375C50.8551 103.231 50.482 103.104 50.0653 102.994L48.6903 102.619C47.7585 102.366 47.0199 101.992 46.4744 101.5C45.9328 101.008 45.6619 100.356 45.6619 99.5455C45.6619 98.875 45.8438 98.2898 46.2074 97.7898C46.571 97.2898 47.0634 96.9015 47.6847 96.625C48.3059 96.3447 49.0066 96.2045 49.7869 96.2045C50.5748 96.2045 51.2699 96.3428 51.8722 96.6193C52.4782 96.8958 52.9555 97.2765 53.304 97.7614C53.6525 98.2424 53.8343 98.7955 53.8494 99.4205H52.1562Z" fill="black"/>
<path d="M33.8579 39.1531C32.8508 39.6159 31.7474 40.2189 29.5385 41.4311C28.701 41.9022 27.8258 42.3733 27.0114 42.8172C26.9548 42.7607 26.8962 42.6895 26.8397 42.6309C22.47 37.9618 14.3882 34.6641 14.7315 28.3934C14.8592 26.1091 15.6444 20.1126 30.2525 12.8305C42.2748 6.90521 51.8411 8.54671 53.4931 12.1877C55.8674 17.3781 48.3655 27.0366 35.9496 28.4373C34.5754 28.7161 33.1562 28.6824 31.7968 28.3388C30.4374 27.9953 29.1726 27.3506 28.0959 26.4525C27.4385 25.7385 27.3401 25.6966 27.0972 25.839C26.6973 26.0484 26.9548 26.6953 27.0972 27.0659C27.5708 27.9234 28.2115 28.6772 28.9815 29.2828C29.7514 29.8885 30.635 30.3335 31.5799 30.5918C36.4659 31.6479 41.5602 31.1433 46.1441 29.1492C53.669 26.2368 59.5441 18.1403 57.823 11.3523C56.0956 4.47018 44.6721 2.20055 33.8642 6.04049C27.0957 8.32141 20.8422 11.912 15.4602 16.6076C9.50553 22.177 8.56334 27.0178 8.94859 29.0445C10.3347 36.2407 20.2548 40.9245 24.233 44.3938C24.0236 44.509 23.8477 44.6032 23.6907 44.6932C21.7058 45.6794 14.139 49.6345 12.2525 53.8178C10.1106 58.558 12.5959 61.9562 14.2374 62.4126C16.7111 63.0052 19.3082 62.8104 21.6658 61.8554C24.0235 60.9005 26.0241 59.2331 27.3882 57.0861C28.5467 55.3057 29.258 53.2719 29.4618 51.1577C29.6655 49.0434 29.3557 46.9112 28.5587 44.9424C29.0289 44.5673 29.5305 44.2331 30.0578 43.9436C31.0711 43.3448 32.0364 42.7544 32.8927 42.298C35.8248 40.9246 39.0245 40.2174 42.2622 40.2272C49.0586 41.0271 50.4006 45.2669 50.1431 47.0529C50.0226 47.6865 49.7678 48.287 49.3958 48.8139C49.0239 49.3409 48.5433 49.782 47.9866 50.1076C47.5155 50.4071 47.3584 50.5076 47.4003 50.7211C47.4568 51.0352 47.6851 51.0205 48.085 50.964C49.1061 50.6413 50.0057 50.0172 50.6656 49.1738C51.3255 48.3304 51.7149 47.3071 51.7825 46.2384C51.9919 42.0509 47.9991 37.4572 40.9306 37.4991C38.8141 37.5027 36.7187 37.9202 34.7624 38.7281C34.4484 38.8579 34.1434 38.9975 33.8475 39.1469L33.8579 39.1531ZM23.7556 55.5661C21.4985 58.022 18.3579 58.9496 17.0012 58.1644C15.5355 57.3269 16.1155 53.6942 18.8855 51.0959C20.5261 49.6177 22.2993 48.2938 24.1827 47.1408C24.5114 46.9314 24.9972 46.6551 25.5813 46.3033L25.7384 46.2175L26.0817 46.0081C26.5758 47.6645 26.6207 49.4224 26.212 51.1018C25.8033 52.7813 24.9555 54.3219 23.7556 55.5661Z" fill="#cf649a"/>
</svg>
